# xmcd
#
# Track frame offsets:
#	150
#	11670
#	24538
#	41600
#	60559
#	83616
#	95990
#	104211
#	119677
#	136630
#	146515
#	151002
#	165294
#	175801
#	185797
#	192954
#	205857
#	215025
#	223425
#	232650
#	246607
#	260211
#	267890
#	277705
#	307663
#	326223
#	338909
#
# Disc length: 4600 seconds
#
# Revision: 1
# Processed by: cddbd v1.5.2PL0 Copyright (c) Steve Scherf et al.
# Submitted via: audiograbber 1.83.01
#
DISCID=9311f61b
DTITLE=Tommy Jarrell - Tommy Jarrell at Pinewoods Camp Volume 1
DYEAR=2009
DGENRE=
TTITLE0=Piney Woods Gal
TTITLE1=Dance All Night with a Bottle in Your Hand
TTITLE2=Careless Love
TTITLE3=Cacklin Hen
TTITLE4=Walking in My Sleep
TTITLE5=Old Buck
TTITLE6=John Henry
TTITLE7=Texas Gals
TTITLE8=Little Stream of Whiskey
TTITLE9=Sail Away
TTITLE10=Devil in the Strawstack
TTITLE11=Soldier's Joy
TTITLE12=Arkansas Traveler
TTITLE13=The Bravest Cowboy
TTITLE14=Fishers Hornpipe
TTITLE15=Say Darling Say
TTITLE16=Back Step Cindy
TTITLE17=Sally Ann
TTITLE18=Jimmy Sutton
TTITLE19=Rockingham Cindy
TTITLE20=Cider
TTITLE21=Richmond Cotillion
TTITLE22=Peek a Boo Waltz
TTITLE23=Drunken Hiccups
TTITLE24=Pretty Polly
TTITLE25=Suzanna Gal
TTITLE26=Ducks on the Millpond
EXTD=With Paul Brown and Mike Seeger.  www.fieldrecorder.com
EXTT0=
EXTT1=
EXTT2=
EXTT3=
EXTT4=
EXTT5=
EXTT6=
EXTT7=
EXTT8=
EXTT9=
EXTT10=
EXTT11=
EXTT12=
EXTT13=
EXTT14=
EXTT15=
EXTT16=
EXTT17=(T.J. Banjo)
EXTT18=
EXTT19=
EXTT20=
EXTT21=
EXTT22=
EXTT23=
EXTT24=
EXTT25=
EXTT26=
PLAYORDER=
